<?xml version="1.0" encoding="UTF-8" standalone="no"?>
<!DOCTYPE svg PUBLIC "-//W3C//DTD SVG 1.1//EN"
 "http://www.w3.org/Graphics/SVG/1.1/DTD/svg11.dtd">
<!-- Generated by graphviz version 2.38.0 (20140413.2041)
 -->
<!-- Title: G Pages: 1 -->
<svg width="486pt" height="1226pt"
 viewBox="0.00 0.00 485.89 1226.00" xmlns="http://www.w3.org/2000/svg" xmlns:xlink="http://www.w3.org/1999/xlink">
<g id="graph0" class="graph" transform="scale(1 1) rotate(0) translate(4 1222)">
<title>G</title>
<polygon fill="white" stroke="none" points="-4,4 -4,-1222 481.892,-1222 481.892,4 -4,4"/>
<g id="clust1" class="cluster"><title>cluster_Global</title>
<path fill="none" stroke="gray" d="M20,-8C20,-8 457.892,-8 457.892,-8 463.892,-8 469.892,-14 469.892,-20 469.892,-20 469.892,-1198 469.892,-1198 469.892,-1204 463.892,-1210 457.892,-1210 457.892,-1210 20,-1210 20,-1210 14,-1210 8,-1204 8,-1198 8,-1198 8,-20 8,-20 8,-14 14,-8 20,-8"/>
<text text-anchor="middle" x="238.946" y="-1197.2" font-family="Times New Roman,serif" font-size="11.00" fill="gray">Global</text>
</g>
<g id="clust8" class="cluster"><title>cluster_Global\Weby</title>
<path fill="none" stroke="gray" d="M202.848,-994C202.848,-994 284.043,-994 284.043,-994 290.043,-994 296.043,-1000 296.043,-1006 296.043,-1006 296.043,-1126 296.043,-1126 296.043,-1132 290.043,-1138 284.043,-1138 284.043,-1138 202.848,-1138 202.848,-1138 196.848,-1138 190.848,-1132 190.848,-1126 190.848,-1126 190.848,-1006 190.848,-1006 190.848,-1000 196.848,-994 202.848,-994"/>
<text text-anchor="middle" x="243.446" y="-1125.2" font-family="Times New Roman,serif" font-size="11.00" fill="gray">Weby</text>
</g>
<g id="clust9" class="cluster"><title>cluster_Global\Weby\Sloth</title>
<path fill="none" stroke="gray" d="M210.848,-1002C210.848,-1002 276.043,-1002 276.043,-1002 282.043,-1002 288.043,-1008 288.043,-1014 288.043,-1014 288.043,-1098 288.043,-1098 288.043,-1104 282.043,-1110 276.043,-1110 276.043,-1110 210.848,-1110 210.848,-1110 204.848,-1110 198.848,-1104 198.848,-1098 198.848,-1098 198.848,-1014 198.848,-1014 198.848,-1008 204.848,-1002 210.848,-1002"/>
<text text-anchor="middle" x="243.446" y="-1097.2" font-family="Times New Roman,serif" font-size="11.00" fill="gray">Sloth</text>
</g>
<g id="clust10" class="cluster"><title>cluster_Global\Weby\Sloth\Operation</title>
<path fill="none" stroke="gray" d="M218.848,-1010C218.848,-1010 268.043,-1010 268.043,-1010 274.043,-1010 280.043,-1016 280.043,-1022 280.043,-1022 280.043,-1070 280.043,-1070 280.043,-1076 274.043,-1082 268.043,-1082 268.043,-1082 218.848,-1082 218.848,-1082 212.848,-1082 206.848,-1076 206.848,-1070 206.848,-1070 206.848,-1022 206.848,-1022 206.848,-1016 212.848,-1010 218.848,-1010"/>
<text text-anchor="middle" x="243.446" y="-1069.2" font-family="Times New Roman,serif" font-size="11.00" fill="gray">Operation</text>
</g>
<g id="clust2" class="cluster"><title>cluster_\Weby</title>
<path fill="none" stroke="gray" d="M28,-16C28,-16 449.892,-16 449.892,-16 455.892,-16 461.892,-22 461.892,-28 461.892,-28 461.892,-974 461.892,-974 461.892,-980 455.892,-986 449.892,-986 449.892,-986 28,-986 28,-986 22,-986 16,-980 16,-974 16,-974 16,-28 16,-28 16,-22 22,-16 28,-16"/>
<text text-anchor="middle" x="238.946" y="-973.2" font-family="Times New Roman,serif" font-size="11.00" fill="gray">Weby</text>
</g>
<g id="clust3" class="cluster"><title>cluster_\Weby\Sloth</title>
<path fill="none" stroke="gray" d="M36,-24C36,-24 441.892,-24 441.892,-24 447.892,-24 453.892,-30 453.892,-36 453.892,-36 453.892,-946 453.892,-946 453.892,-952 447.892,-958 441.892,-958 441.892,-958 36,-958 36,-958 30,-958 24,-952 24,-946 24,-946 24,-36 24,-36 24,-30 30,-24 36,-24"/>
<text text-anchor="middle" x="238.946" y="-945.2" font-family="Times New Roman,serif" font-size="11.00" fill="gray">Sloth</text>
</g>
<g id="clust4" class="cluster"><title>cluster_\Weby\Sloth\Func</title>
<path fill="none" stroke="gray" d="M44,-32C44,-32 433.892,-32 433.892,-32 439.892,-32 445.892,-38 445.892,-44 445.892,-44 445.892,-694 445.892,-694 445.892,-700 439.892,-706 433.892,-706 433.892,-706 44,-706 44,-706 38,-706 32,-700 32,-694 32,-694 32,-44 32,-44 32,-38 38,-32 44,-32"/>
<text text-anchor="middle" x="238.946" y="-693.2" font-family="Times New Roman,serif" font-size="11.00" fill="gray">Func</text>
</g>
<g id="clust5" class="cluster"><title>cluster_\Weby\Sloth\Func\Group</title>
<path fill="none" stroke="gray" d="M205.446,-606C205.446,-606 424.392,-606 424.392,-606 430.392,-606 436.392,-612 436.392,-618 436.392,-618 436.392,-666 436.392,-666 436.392,-672 430.392,-678 424.392,-678 424.392,-678 205.446,-678 205.446,-678 199.446,-678 193.446,-672 193.446,-666 193.446,-666 193.446,-618 193.446,-618 193.446,-612 199.446,-606 205.446,-606"/>
<text text-anchor="middle" x="314.919" y="-665.2" font-family="Times New Roman,serif" font-size="11.00" fill="gray">Group</text>
</g>
<g id="clust6" class="cluster"><title>cluster_\Weby\Sloth\Func\Value</title>
<path fill="none" stroke="gray" d="M205.446,-40C205.446,-40 425.892,-40 425.892,-40 431.892,-40 437.892,-46 437.892,-52 437.892,-52 437.892,-586 437.892,-586 437.892,-592 431.892,-598 425.892,-598 425.892,-598 205.446,-598 205.446,-598 199.446,-598 193.446,-592 193.446,-586 193.446,-586 193.446,-52 193.446,-52 193.446,-46 199.446,-40 205.446,-40"/>
<text text-anchor="middle" x="315.669" y="-585.2" font-family="Times New Roman,serif" font-size="11.00" fill="gray">Value</text>
</g>
<g id="clust7" class="cluster"><title>cluster_\Weby\Sloth\Operation</title>
<path fill="none" stroke="gray" d="M378.392,-814C378.392,-814 424.392,-814 424.392,-814 430.392,-814 436.392,-820 436.392,-826 436.392,-826 436.392,-874 436.392,-874 436.392,-880 430.392,-886 424.392,-886 424.392,-886 378.392,-886 378.392,-886 372.392,-886 366.392,-880 366.392,-874 366.392,-874 366.392,-826 366.392,-826 366.392,-820 372.392,-814 378.392,-814"/>
<text text-anchor="middle" x="401.392" y="-873.2" font-family="Times New Roman,serif" font-size="11.00" fill="gray">Operation</text>
</g>
<!-- \\Weby\\Sloth\\Func\\Group\\Count -->
<g id="node1" class="node"><title>\\Weby\\Sloth\\Func\\Group\\Count</title>
<polygon fill="none" stroke="black" points="428.392,-650 374.392,-650 374.392,-614 428.392,-614 428.392,-650"/>
<text text-anchor="middle" x="401.392" y="-629.2" font-family="Courier,monospace" font-size="11.00">Count</text>
</g>
<!-- \\Weby\\Sloth\\Func\\Group\\Base -->
<g id="node2" class="node"><title>\\Weby\\Sloth\\Func\\Group\\Base</title>
<polygon fill="none" stroke="black" points="285.446,-650 201.446,-650 201.446,-614 285.446,-614 285.446,-650"/>
<text text-anchor="start" x="209.446" y="-635.2" font-family="Courier,monospace" font-size="11.00">«abstract»</text>
<text text-anchor="start" x="229.446" y="-623.2" font-family="Courier,monospace" font-size="11.00">Base</text>
</g>
<!-- \\Weby\\Sloth\\Func\\Group\\Count&#45;&gt;\\Weby\\Sloth\\Func\\Group\\Base -->
<g id="edge1" class="edge"><title>\\Weby\\Sloth\\Func\\Group\\Count&#45;&gt;\\Weby\\Sloth\\Func\\Group\\Base</title>
<path fill="none" stroke="black" d="M374.29,-632C352.933,-632 322.076,-632 295.801,-632"/>
<polygon fill="none" stroke="black" points="295.612,-628.5 285.612,-632 295.612,-635.5 295.612,-628.5"/>
</g>
<!-- \\Weby\\Sloth\\Func\\Base -->
<g id="node14" class="node"><title>\\Weby\\Sloth\\Func\\Base</title>
<polygon fill="none" stroke="black" points="124,-502 40,-502 40,-466 124,-466 124,-502"/>
<text text-anchor="start" x="48" y="-487.2" font-family="Courier,monospace" font-size="11.00">«abstract»</text>
<text text-anchor="start" x="68" y="-475.2" font-family="Courier,monospace" font-size="11.00">Base</text>
</g>
<!-- \\Weby\\Sloth\\Func\\Group\\Base&#45;&gt;\\Weby\\Sloth\\Func\\Base -->
<g id="edge2" class="edge"><title>\\Weby\\Sloth\\Func\\Group\\Base&#45;&gt;\\Weby\\Sloth\\Func\\Base</title>
<path fill="none" stroke="black" d="M207.895,-613.879C201.999,-610.242 196.092,-606.227 190.848,-602 156.683,-574.457 123.577,-535.92 103.257,-510.478"/>
<polygon fill="none" stroke="black" points="105.815,-508.069 96.8726,-502.387 100.319,-512.405 105.815,-508.069"/>
</g>
<!-- \\Weby\\Sloth\\Func\\Value\\Count -->
<g id="node3" class="node"><title>\\Weby\\Sloth\\Func\\Value\\Count</title>
<polygon fill="none" stroke="black" points="428.392,-570 374.392,-570 374.392,-534 428.392,-534 428.392,-570"/>
<text text-anchor="middle" x="401.392" y="-549.2" font-family="Courier,monospace" font-size="11.00">Count</text>
</g>
<!-- \\Weby\\Sloth\\Func\\Value\\Base -->
<g id="node9" class="node"><title>\\Weby\\Sloth\\Func\\Value\\Base</title>
<polygon fill="none" stroke="black" points="285.446,-354 201.446,-354 201.446,-318 285.446,-318 285.446,-354"/>
<text text-anchor="start" x="209.446" y="-339.2" font-family="Courier,monospace" font-size="11.00">«abstract»</text>
<text text-anchor="start" x="229.446" y="-327.2" font-family="Courier,monospace" font-size="11.00">Base</text>
</g>
<!-- \\Weby\\Sloth\\Func\\Value\\Count&#45;&gt;\\Weby\\Sloth\\Func\\Value\\Base -->
<g id="edge3" class="edge"><title>\\Weby\\Sloth\\Func\\Value\\Count&#45;&gt;\\Weby\\Sloth\\Func\\Value\\Base</title>
<path fill="none" stroke="black" d="M374.287,-535.235C370.248,-532.083 366.294,-528.628 362.892,-525 315.518,-474.483 276.528,-402.307 257.328,-363.389"/>
<polygon fill="none" stroke="black" points="260.402,-361.707 252.88,-354.245 254.107,-364.769 260.402,-361.707"/>
</g>
<!-- \\Weby\\Sloth\\Func\\Value\\Sum -->
<g id="node4" class="node"><title>\\Weby\\Sloth\\Func\\Value\\Sum</title>
<polygon fill="none" stroke="black" points="428.392,-516 374.392,-516 374.392,-480 428.392,-480 428.392,-516"/>
<text text-anchor="middle" x="401.392" y="-495.2" font-family="Courier,monospace" font-size="11.00">Sum</text>
</g>
<!-- \\Weby\\Sloth\\Func\\Value\\Sum&#45;&gt;\\Weby\\Sloth\\Func\\Value\\Base -->
<g id="edge4" class="edge"><title>\\Weby\\Sloth\\Func\\Value\\Sum&#45;&gt;\\Weby\\Sloth\\Func\\Value\\Base</title>
<path fill="none" stroke="black" d="M374.372,-480.445C370.408,-477.438 366.455,-474.236 362.892,-471 325.031,-436.615 287.06,-390.869 264.664,-362.438"/>
<polygon fill="none" stroke="black" points="267.145,-359.929 258.23,-354.202 261.628,-364.238 267.145,-359.929"/>
</g>
<!-- \\Weby\\Sloth\\Func\\Value\\Min -->
<g id="node5" class="node"><title>\\Weby\\Sloth\\Func\\Value\\Min</title>
<polygon fill="none" stroke="black" points="428.392,-462 374.392,-462 374.392,-426 428.392,-426 428.392,-462"/>
<text text-anchor="middle" x="401.392" y="-441.2" font-family="Courier,monospace" font-size="11.00">Min</text>
</g>
<!-- \\Weby\\Sloth\\Func\\Value\\Min&#45;&gt;\\Weby\\Sloth\\Func\\Value\\Base -->
<g id="edge5" class="edge"><title>\\Weby\\Sloth\\Func\\Value\\Min&#45;&gt;\\Weby\\Sloth\\Func\\Value\\Base</title>
<path fill="none" stroke="black" d="M374.29,-425.923C348.202,-407.856 307.936,-379.97 279.164,-360.044"/>
<polygon fill="none" stroke="black" points="280.846,-356.952 270.633,-354.136 276.861,-362.707 280.846,-356.952"/>
</g>
<!-- \\Weby\\Sloth\\Func\\Value\\Max -->
<g id="node6" class="node"><title>\\Weby\\Sloth\\Func\\Value\\Max</title>
<polygon fill="none" stroke="black" points="428.392,-408 374.392,-408 374.392,-372 428.392,-372 428.392,-408"/>
<text text-anchor="middle" x="401.392" y="-387.2" font-family="Courier,monospace" font-size="11.00">Max</text>
</g>
<!-- \\Weby\\Sloth\\Func\\Value\\Max&#45;&gt;\\Weby\\Sloth\\Func\\Value\\Base -->
<g id="edge6" class="edge"><title>\\Weby\\Sloth\\Func\\Value\\Max&#45;&gt;\\Weby\\Sloth\\Func\\Value\\Base</title>
<path fill="none" stroke="black" d="M374.29,-380.962C352.744,-373.501 321.529,-362.692 295.104,-353.542"/>
<polygon fill="none" stroke="black" points="296.207,-350.22 285.612,-350.255 293.917,-356.834 296.207,-350.22"/>
</g>
<!-- \\Weby\\Sloth\\Func\\Value\\Avg -->
<g id="node7" class="node"><title>\\Weby\\Sloth\\Func\\Value\\Avg</title>
<polygon fill="none" stroke="black" points="428.392,-354 374.392,-354 374.392,-318 428.392,-318 428.392,-354"/>
<text text-anchor="middle" x="401.392" y="-333.2" font-family="Courier,monospace" font-size="11.00">Avg</text>
</g>
<!-- \\Weby\\Sloth\\Func\\Value\\Avg&#45;&gt;\\Weby\\Sloth\\Func\\Value\\Base -->
<g id="edge7" class="edge"><title>\\Weby\\Sloth\\Func\\Value\\Avg&#45;&gt;\\Weby\\Sloth\\Func\\Value\\Base</title>
<path fill="none" stroke="black" d="M374.29,-336C352.933,-336 322.076,-336 295.801,-336"/>
<polygon fill="none" stroke="black" points="295.612,-332.5 285.612,-336 295.612,-339.5 295.612,-332.5"/>
</g>
<!-- \\Weby\\Sloth\\Func\\Value\\Accum -->
<g id="node8" class="node"><title>\\Weby\\Sloth\\Func\\Value\\Accum</title>
<polygon fill="none" stroke="black" points="428.392,-300 374.392,-300 374.392,-264 428.392,-264 428.392,-300"/>
<text text-anchor="middle" x="401.392" y="-279.2" font-family="Courier,monospace" font-size="11.00">Accum</text>
</g>
<!-- \\Weby\\Sloth\\Func\\Value\\Accum&#45;&gt;\\Weby\\Sloth\\Func\\Value\\Base -->
<g id="edge9" class="edge"><title>\\Weby\\Sloth\\Func\\Value\\Accum&#45;&gt;\\Weby\\Sloth\\Func\\Value\\Base</title>
<path fill="none" stroke="black" d="M374.29,-291.038C352.744,-298.499 321.529,-309.308 295.104,-318.458"/>
<polygon fill="none" stroke="black" points="293.917,-315.166 285.612,-321.745 296.207,-321.78 293.917,-315.166"/>
</g>
<!-- \\Weby\\Sloth\\Func\\Value\\Base&#45;&gt;\\Weby\\Sloth\\Func\\Base -->
<g id="edge11" class="edge"><title>\\Weby\\Sloth\\Func\\Value\\Base&#45;&gt;\\Weby\\Sloth\\Func\\Base</title>
<path fill="none" stroke="black" d="M222.895,-354.148C194.683,-380.334 142.439,-428.828 110.396,-458.571"/>
<polygon fill="none" stroke="black" points="107.659,-456.335 102.711,-465.704 112.421,-461.466 107.659,-456.335"/>
</g>
<!-- \\Weby\\Sloth\\Func\\Value\\Median -->
<g id="node10" class="node"><title>\\Weby\\Sloth\\Func\\Value\\Median</title>
<polygon fill="none" stroke="black" points="429.892,-246 372.892,-246 372.892,-210 429.892,-210 429.892,-246"/>
<text text-anchor="middle" x="401.392" y="-225.2" font-family="Courier,monospace" font-size="11.00">Median</text>
</g>
<!-- \\Weby\\Sloth\\Func\\Value\\Median&#45;&gt;\\Weby\\Sloth\\Func\\Value\\Base -->
<g id="edge12" class="edge"><title>\\Weby\\Sloth\\Func\\Value\\Median&#45;&gt;\\Weby\\Sloth\\Func\\Value\\Base</title>
<path fill="none" stroke="black" d="M374.29,-246.077C348.202,-264.144 307.936,-292.03 279.164,-311.956"/>
<polygon fill="none" stroke="black" points="276.861,-309.293 270.633,-317.864 280.846,-315.048 276.861,-309.293"/>
</g>
<!-- \\Weby\\Sloth\\Func\\Value\\Mode -->
<g id="node11" class="node"><title>\\Weby\\Sloth\\Func\\Value\\Mode</title>
<polygon fill="none" stroke="black" points="428.392,-192 374.392,-192 374.392,-156 428.392,-156 428.392,-192"/>
<text text-anchor="middle" x="401.392" y="-171.2" font-family="Courier,monospace" font-size="11.00">Mode</text>
</g>
<!-- \\Weby\\Sloth\\Func\\Value\\Mode&#45;&gt;\\Weby\\Sloth\\Func\\Value\\Base -->
<g id="edge13" class="edge"><title>\\Weby\\Sloth\\Func\\Value\\Mode&#45;&gt;\\Weby\\Sloth\\Func\\Value\\Base</title>
<path fill="none" stroke="black" d="M374.372,-191.555C370.408,-194.562 366.455,-197.764 362.892,-201 325.031,-235.385 287.06,-281.131 264.664,-309.562"/>
<polygon fill="none" stroke="black" points="261.628,-307.762 258.23,-317.798 267.145,-312.071 261.628,-307.762"/>
</g>
<!-- \\Weby\\Sloth\\Func\\Value\\First -->
<g id="node12" class="node"><title>\\Weby\\Sloth\\Func\\Value\\First</title>
<polygon fill="none" stroke="black" points="428.392,-138 374.392,-138 374.392,-102 428.392,-102 428.392,-138"/>
<text text-anchor="middle" x="401.392" y="-117.2" font-family="Courier,monospace" font-size="11.00">First</text>
</g>
<!-- \\Weby\\Sloth\\Func\\Value\\First&#45;&gt;\\Weby\\Sloth\\Func\\Value\\Base -->
<g id="edge14" class="edge"><title>\\Weby\\Sloth\\Func\\Value\\First&#45;&gt;\\Weby\\Sloth\\Func\\Value\\Base</title>
<path fill="none" stroke="black" d="M374.287,-136.765C370.248,-139.917 366.294,-143.372 362.892,-147 315.518,-197.517 276.528,-269.693 257.328,-308.611"/>
<polygon fill="none" stroke="black" points="254.107,-307.231 252.88,-317.755 260.402,-310.293 254.107,-307.231"/>
</g>
<!-- \\Weby\\Sloth\\Func\\Value\\Concat -->
<g id="node13" class="node"><title>\\Weby\\Sloth\\Func\\Value\\Concat</title>
<polygon fill="none" stroke="black" points="429.892,-84 372.892,-84 372.892,-48 429.892,-48 429.892,-84"/>
<text text-anchor="middle" x="401.392" y="-63.2" font-family="Courier,monospace" font-size="11.00">Concat</text>
</g>
<!-- \\Weby\\Sloth\\Func\\Value\\Concat&#45;&gt;\\Weby\\Sloth\\Func\\Value\\Base -->
<g id="edge15" class="edge"><title>\\Weby\\Sloth\\Func\\Value\\Concat&#45;&gt;\\Weby\\Sloth\\Func\\Value\\Base</title>
<path fill="none" stroke="black" d="M372.79,-83.3985C369.209,-86.3399 365.786,-89.5644 362.892,-93 305.982,-160.544 268.735,-260.1 252.996,-308.102"/>
<polygon fill="none" stroke="black" points="249.606,-307.211 249.879,-317.802 256.27,-309.352 249.606,-307.211"/>
</g>
<!-- \\Weby\\Sloth\\Operation\\Group -->
<g id="node15" class="node"><title>\\Weby\\Sloth\\Operation\\Group</title>
<polygon fill="none" stroke="black" points="428.392,-858 374.392,-858 374.392,-822 428.392,-822 428.392,-858"/>
<text text-anchor="middle" x="401.392" y="-837.2" font-family="Courier,monospace" font-size="11.00">Group</text>
</g>
<!-- Base -->
<g id="node19" class="node"><title>Base</title>
<ellipse fill="none" stroke="black" cx="243.446" cy="-1036" rx="28.6953" ry="18"/>
<text text-anchor="middle" x="243.446" y="-1032.3" font-family="Times New Roman,serif" font-size="14.00" fill="gray">Base</text>
</g>
<!-- \\Weby\\Sloth\\Operation\\Group&#45;&gt;Base -->
<g id="edge8" class="edge"><title>\\Weby\\Sloth\\Operation\\Group&#45;&gt;Base</title>
<path fill="none" stroke="black" d="M374.314,-853.247C370.272,-855.865 366.31,-858.804 362.892,-862 315.356,-906.447 276.638,-973.259 257.473,-1009.81"/>
<polygon fill="none" stroke="black" points="254.285,-1008.35 252.811,-1018.85 260.506,-1011.56 254.285,-1008.35"/>
</g>
<!-- \\Weby\\Sloth\\Sloth -->
<g id="node16" class="node"><title>\\Weby\\Sloth\\Sloth</title>
<polygon fill="none" stroke="black" points="428.392,-804 374.392,-804 374.392,-768 428.392,-768 428.392,-804"/>
<text text-anchor="middle" x="401.392" y="-783.2" font-family="Courier,monospace" font-size="11.00">Sloth</text>
</g>
<!-- \\Weby\\Sloth\\Utils -->
<g id="node17" class="node"><title>\\Weby\\Sloth\\Utils</title>
<polygon fill="none" stroke="black" points="428.392,-750 374.392,-750 374.392,-714 428.392,-714 428.392,-750"/>
<text text-anchor="middle" x="401.392" y="-729.2" font-family="Courier,monospace" font-size="11.00">Utils</text>
</g>
<!-- \\Weby\\Sloth\\Exception -->
<g id="node18" class="node"><title>\\Weby\\Sloth\\Exception</title>
<polygon fill="none" stroke="black" points="439.892,-930 362.892,-930 362.892,-894 439.892,-894 439.892,-930"/>
<text text-anchor="middle" x="401.392" y="-909.2" font-family="Courier,monospace" font-size="11.00">Exception</text>
</g>
<!-- Exception -->
<g id="node20" class="node"><title>Exception</title>
<ellipse fill="none" stroke="black" cx="243.446" cy="-1164" rx="47.3916" ry="18"/>
<text text-anchor="middle" x="243.446" y="-1160.3" font-family="Times New Roman,serif" font-size="14.00" fill="gray">Exception</text>
</g>
<!-- \\Weby\\Sloth\\Exception&#45;&gt;Exception -->
<g id="edge10" class="edge"><title>\\Weby\\Sloth\\Exception&#45;&gt;Exception</title>
<path fill="none" stroke="black" d="M389.837,-930.196C371.286,-962.038 331.443,-1029.83 296.043,-1086 284.972,-1103.57 272.084,-1123.05 261.959,-1138.15"/>
<polygon fill="none" stroke="black" points="259.028,-1136.24 256.35,-1146.49 264.836,-1140.14 259.028,-1136.24"/>
</g>
</g>
</svg>
