<?xml version="1.0" encoding="UTF-8" standalone="no"?>
<!DOCTYPE svg PUBLIC "-//W3C//DTD SVG 1.1//EN"
 "http://www.w3.org/Graphics/SVG/1.1/DTD/svg11.dtd">
<!-- Generated by graphviz version 2.38.0 (20140413.2041)
 -->
<!-- Title: G Pages: 1 -->
<svg width="486pt" height="1172pt"
 viewBox="0.00 0.00 485.89 1172.00" xmlns="http://www.w3.org/2000/svg" xmlns:xlink="http://www.w3.org/1999/xlink">
<g id="graph0" class="graph" transform="scale(1 1) rotate(0) translate(4 1168)">
<title>G</title>
<polygon fill="white" stroke="none" points="-4,4 -4,-1168 481.892,-1168 481.892,4 -4,4"/>
<g id="clust1" class="cluster"><title>cluster_Global</title>
<path fill="none" stroke="gray" d="M20,-8C20,-8 457.892,-8 457.892,-8 463.892,-8 469.892,-14 469.892,-20 469.892,-20 469.892,-1144 469.892,-1144 469.892,-1150 463.892,-1156 457.892,-1156 457.892,-1156 20,-1156 20,-1156 14,-1156 8,-1150 8,-1144 8,-1144 8,-20 8,-20 8,-14 14,-8 20,-8"/>
<text text-anchor="middle" x="238.946" y="-1143.2" font-family="Times New Roman,serif" font-size="11.00" fill="gray">Global</text>
</g>
<g id="clust8" class="cluster"><title>cluster_Global\Weby</title>
<path fill="none" stroke="gray" d="M202.848,-940C202.848,-940 284.043,-940 284.043,-940 290.043,-940 296.043,-946 296.043,-952 296.043,-952 296.043,-1072 296.043,-1072 296.043,-1078 290.043,-1084 284.043,-1084 284.043,-1084 202.848,-1084 202.848,-1084 196.848,-1084 190.848,-1078 190.848,-1072 190.848,-1072 190.848,-952 190.848,-952 190.848,-946 196.848,-940 202.848,-940"/>
<text text-anchor="middle" x="243.446" y="-1071.2" font-family="Times New Roman,serif" font-size="11.00" fill="gray">Weby</text>
</g>
<g id="clust9" class="cluster"><title>cluster_Global\Weby\Sloth</title>
<path fill="none" stroke="gray" d="M210.848,-948C210.848,-948 276.043,-948 276.043,-948 282.043,-948 288.043,-954 288.043,-960 288.043,-960 288.043,-1044 288.043,-1044 288.043,-1050 282.043,-1056 276.043,-1056 276.043,-1056 210.848,-1056 210.848,-1056 204.848,-1056 198.848,-1050 198.848,-1044 198.848,-1044 198.848,-960 198.848,-960 198.848,-954 204.848,-948 210.848,-948"/>
<text text-anchor="middle" x="243.446" y="-1043.2" font-family="Times New Roman,serif" font-size="11.00" fill="gray">Sloth</text>
</g>
<g id="clust10" class="cluster"><title>cluster_Global\Weby\Sloth\Operation</title>
<path fill="none" stroke="gray" d="M218.848,-956C218.848,-956 268.043,-956 268.043,-956 274.043,-956 280.043,-962 280.043,-968 280.043,-968 280.043,-1016 280.043,-1016 280.043,-1022 274.043,-1028 268.043,-1028 268.043,-1028 218.848,-1028 218.848,-1028 212.848,-1028 206.848,-1022 206.848,-1016 206.848,-1016 206.848,-968 206.848,-968 206.848,-962 212.848,-956 218.848,-956"/>
<text text-anchor="middle" x="243.446" y="-1015.2" font-family="Times New Roman,serif" font-size="11.00" fill="gray">Operation</text>
</g>
<g id="clust2" class="cluster"><title>cluster_\Weby</title>
<path fill="none" stroke="gray" d="M28,-16C28,-16 449.892,-16 449.892,-16 455.892,-16 461.892,-22 461.892,-28 461.892,-28 461.892,-920 461.892,-920 461.892,-926 455.892,-932 449.892,-932 449.892,-932 28,-932 28,-932 22,-932 16,-926 16,-920 16,-920 16,-28 16,-28 16,-22 22,-16 28,-16"/>
<text text-anchor="middle" x="238.946" y="-919.2" font-family="Times New Roman,serif" font-size="11.00" fill="gray">Weby</text>
</g>
<g id="clust3" class="cluster"><title>cluster_\Weby\Sloth</title>
<path fill="none" stroke="gray" d="M36,-24C36,-24 441.892,-24 441.892,-24 447.892,-24 453.892,-30 453.892,-36 453.892,-36 453.892,-892 453.892,-892 453.892,-898 447.892,-904 441.892,-904 441.892,-904 36,-904 36,-904 30,-904 24,-898 24,-892 24,-892 24,-36 24,-36 24,-30 30,-24 36,-24"/>
<text text-anchor="middle" x="238.946" y="-891.2" font-family="Times New Roman,serif" font-size="11.00" fill="gray">Sloth</text>
</g>
<g id="clust4" class="cluster"><title>cluster_\Weby\Sloth\Func</title>
<path fill="none" stroke="gray" d="M44,-32C44,-32 433.892,-32 433.892,-32 439.892,-32 445.892,-38 445.892,-44 445.892,-44 445.892,-586 445.892,-586 445.892,-592 439.892,-598 433.892,-598 433.892,-598 44,-598 44,-598 38,-598 32,-592 32,-586 32,-586 32,-44 32,-44 32,-38 38,-32 44,-32"/>
<text text-anchor="middle" x="238.946" y="-585.2" font-family="Times New Roman,serif" font-size="11.00" fill="gray">Func</text>
</g>
<g id="clust5" class="cluster"><title>cluster_\Weby\Sloth\Func\Group</title>
<path fill="none" stroke="gray" d="M205.446,-498C205.446,-498 424.392,-498 424.392,-498 430.392,-498 436.392,-504 436.392,-510 436.392,-510 436.392,-558 436.392,-558 436.392,-564 430.392,-570 424.392,-570 424.392,-570 205.446,-570 205.446,-570 199.446,-570 193.446,-564 193.446,-558 193.446,-558 193.446,-510 193.446,-510 193.446,-504 199.446,-498 205.446,-498"/>
<text text-anchor="middle" x="314.919" y="-557.2" font-family="Times New Roman,serif" font-size="11.00" fill="gray">Group</text>
</g>
<g id="clust6" class="cluster"><title>cluster_\Weby\Sloth\Func\Value</title>
<path fill="none" stroke="gray" d="M205.446,-40C205.446,-40 425.892,-40 425.892,-40 431.892,-40 437.892,-46 437.892,-52 437.892,-52 437.892,-478 437.892,-478 437.892,-484 431.892,-490 425.892,-490 425.892,-490 205.446,-490 205.446,-490 199.446,-490 193.446,-484 193.446,-478 193.446,-478 193.446,-52 193.446,-52 193.446,-46 199.446,-40 205.446,-40"/>
<text text-anchor="middle" x="315.669" y="-477.2" font-family="Times New Roman,serif" font-size="11.00" fill="gray">Value</text>
</g>
<g id="clust7" class="cluster"><title>cluster_\Weby\Sloth\Operation</title>
<path fill="none" stroke="gray" d="M378.392,-706C378.392,-706 424.392,-706 424.392,-706 430.392,-706 436.392,-712 436.392,-718 436.392,-718 436.392,-820 436.392,-820 436.392,-826 430.392,-832 424.392,-832 424.392,-832 378.392,-832 378.392,-832 372.392,-832 366.392,-826 366.392,-820 366.392,-820 366.392,-718 366.392,-718 366.392,-712 372.392,-706 378.392,-706"/>
<text text-anchor="middle" x="401.392" y="-819.2" font-family="Times New Roman,serif" font-size="11.00" fill="gray">Operation</text>
</g>
<!-- \\Weby\\Sloth\\Func\\Group\\Count -->
<g id="node1" class="node"><title>\\Weby\\Sloth\\Func\\Group\\Count</title>
<polygon fill="none" stroke="black" points="428.392,-542 374.392,-542 374.392,-506 428.392,-506 428.392,-542"/>
<text text-anchor="middle" x="401.392" y="-521.2" font-family="Courier,monospace" font-size="11.00">Count</text>
</g>
<!-- \\Weby\\Sloth\\Func\\Group\\Base -->
<g id="node2" class="node"><title>\\Weby\\Sloth\\Func\\Group\\Base</title>
<polygon fill="none" stroke="black" points="285.446,-542 201.446,-542 201.446,-506 285.446,-506 285.446,-542"/>
<text text-anchor="start" x="209.446" y="-527.2" font-family="Courier,monospace" font-size="11.00">«abstract»</text>
<text text-anchor="start" x="229.446" y="-515.2" font-family="Courier,monospace" font-size="11.00">Base</text>
</g>
<!-- \\Weby\\Sloth\\Func\\Group\\Count&#45;&gt;\\Weby\\Sloth\\Func\\Group\\Base -->
<g id="edge1" class="edge"><title>\\Weby\\Sloth\\Func\\Group\\Count&#45;&gt;\\Weby\\Sloth\\Func\\Group\\Base</title>
<path fill="none" stroke="black" d="M374.29,-524C352.933,-524 322.076,-524 295.801,-524"/>
<polygon fill="none" stroke="black" points="295.612,-520.5 285.612,-524 295.612,-527.5 295.612,-520.5"/>
</g>
<!-- \\Weby\\Sloth\\Func\\Base -->
<g id="node12" class="node"><title>\\Weby\\Sloth\\Func\\Base</title>
<polygon fill="none" stroke="black" points="124,-421 40,-421 40,-385 124,-385 124,-421"/>
<text text-anchor="start" x="48" y="-406.2" font-family="Courier,monospace" font-size="11.00">«abstract»</text>
<text text-anchor="start" x="68" y="-394.2" font-family="Courier,monospace" font-size="11.00">Base</text>
</g>
<!-- \\Weby\\Sloth\\Func\\Group\\Base&#45;&gt;\\Weby\\Sloth\\Func\\Base -->
<g id="edge2" class="edge"><title>\\Weby\\Sloth\\Func\\Group\\Base&#45;&gt;\\Weby\\Sloth\\Func\\Base</title>
<path fill="none" stroke="black" d="M209.429,-505.955C203.136,-502.195 196.693,-498.118 190.848,-494 161.902,-473.606 131.263,-447.234 110.07,-428.134"/>
<polygon fill="none" stroke="black" points="112.189,-425.33 102.434,-421.197 107.483,-430.512 112.189,-425.33"/>
</g>
<!-- \\Weby\\Sloth\\Func\\Value\\Sum -->
<g id="node3" class="node"><title>\\Weby\\Sloth\\Func\\Value\\Sum</title>
<polygon fill="none" stroke="black" points="428.392,-462 374.392,-462 374.392,-426 428.392,-426 428.392,-462"/>
<text text-anchor="middle" x="401.392" y="-441.2" font-family="Courier,monospace" font-size="11.00">Sum</text>
</g>
<!-- \\Weby\\Sloth\\Func\\Value\\Base -->
<g id="node8" class="node"><title>\\Weby\\Sloth\\Func\\Value\\Base</title>
<polygon fill="none" stroke="black" points="285.446,-300 201.446,-300 201.446,-264 285.446,-264 285.446,-300"/>
<text text-anchor="start" x="209.446" y="-285.2" font-family="Courier,monospace" font-size="11.00">«abstract»</text>
<text text-anchor="start" x="229.446" y="-273.2" font-family="Courier,monospace" font-size="11.00">Base</text>
</g>
<!-- \\Weby\\Sloth\\Func\\Value\\Sum&#45;&gt;\\Weby\\Sloth\\Func\\Value\\Base -->
<g id="edge3" class="edge"><title>\\Weby\\Sloth\\Func\\Value\\Sum&#45;&gt;\\Weby\\Sloth\\Func\\Value\\Base</title>
<path fill="none" stroke="black" d="M374.372,-426.445C370.408,-423.438 366.455,-420.236 362.892,-417 325.031,-382.615 287.06,-336.869 264.664,-308.438"/>
<polygon fill="none" stroke="black" points="267.145,-305.929 258.23,-300.202 261.628,-310.238 267.145,-305.929"/>
</g>
<!-- \\Weby\\Sloth\\Func\\Value\\Min -->
<g id="node4" class="node"><title>\\Weby\\Sloth\\Func\\Value\\Min</title>
<polygon fill="none" stroke="black" points="428.392,-408 374.392,-408 374.392,-372 428.392,-372 428.392,-408"/>
<text text-anchor="middle" x="401.392" y="-387.2" font-family="Courier,monospace" font-size="11.00">Min</text>
</g>
<!-- \\Weby\\Sloth\\Func\\Value\\Min&#45;&gt;\\Weby\\Sloth\\Func\\Value\\Base -->
<g id="edge4" class="edge"><title>\\Weby\\Sloth\\Func\\Value\\Min&#45;&gt;\\Weby\\Sloth\\Func\\Value\\Base</title>
<path fill="none" stroke="black" d="M374.29,-371.923C348.202,-353.856 307.936,-325.97 279.164,-306.044"/>
<polygon fill="none" stroke="black" points="280.846,-302.952 270.633,-300.136 276.861,-308.707 280.846,-302.952"/>
</g>
<!-- \\Weby\\Sloth\\Func\\Value\\Max -->
<g id="node5" class="node"><title>\\Weby\\Sloth\\Func\\Value\\Max</title>
<polygon fill="none" stroke="black" points="428.392,-354 374.392,-354 374.392,-318 428.392,-318 428.392,-354"/>
<text text-anchor="middle" x="401.392" y="-333.2" font-family="Courier,monospace" font-size="11.00">Max</text>
</g>
<!-- \\Weby\\Sloth\\Func\\Value\\Max&#45;&gt;\\Weby\\Sloth\\Func\\Value\\Base -->
<g id="edge6" class="edge"><title>\\Weby\\Sloth\\Func\\Value\\Max&#45;&gt;\\Weby\\Sloth\\Func\\Value\\Base</title>
<path fill="none" stroke="black" d="M374.29,-326.962C352.744,-319.501 321.529,-308.692 295.104,-299.542"/>
<polygon fill="none" stroke="black" points="296.207,-296.22 285.612,-296.255 293.917,-302.834 296.207,-296.22"/>
</g>
<!-- \\Weby\\Sloth\\Func\\Value\\Avg -->
<g id="node6" class="node"><title>\\Weby\\Sloth\\Func\\Value\\Avg</title>
<polygon fill="none" stroke="black" points="428.392,-300 374.392,-300 374.392,-264 428.392,-264 428.392,-300"/>
<text text-anchor="middle" x="401.392" y="-279.2" font-family="Courier,monospace" font-size="11.00">Avg</text>
</g>
<!-- \\Weby\\Sloth\\Func\\Value\\Avg&#45;&gt;\\Weby\\Sloth\\Func\\Value\\Base -->
<g id="edge7" class="edge"><title>\\Weby\\Sloth\\Func\\Value\\Avg&#45;&gt;\\Weby\\Sloth\\Func\\Value\\Base</title>
<path fill="none" stroke="black" d="M374.29,-282C352.933,-282 322.076,-282 295.801,-282"/>
<polygon fill="none" stroke="black" points="295.612,-278.5 285.612,-282 295.612,-285.5 295.612,-278.5"/>
</g>
<!-- \\Weby\\Sloth\\Func\\Value\\Accum -->
<g id="node7" class="node"><title>\\Weby\\Sloth\\Func\\Value\\Accum</title>
<polygon fill="none" stroke="black" points="428.392,-246 374.392,-246 374.392,-210 428.392,-210 428.392,-246"/>
<text text-anchor="middle" x="401.392" y="-225.2" font-family="Courier,monospace" font-size="11.00">Accum</text>
</g>
<!-- \\Weby\\Sloth\\Func\\Value\\Accum&#45;&gt;\\Weby\\Sloth\\Func\\Value\\Base -->
<g id="edge9" class="edge"><title>\\Weby\\Sloth\\Func\\Value\\Accum&#45;&gt;\\Weby\\Sloth\\Func\\Value\\Base</title>
<path fill="none" stroke="black" d="M374.29,-237.038C352.744,-244.499 321.529,-255.308 295.104,-264.458"/>
<polygon fill="none" stroke="black" points="293.917,-261.166 285.612,-267.745 296.207,-267.78 293.917,-261.166"/>
</g>
<!-- \\Weby\\Sloth\\Func\\Value\\Base&#45;&gt;\\Weby\\Sloth\\Func\\Base -->
<g id="edge11" class="edge"><title>\\Weby\\Sloth\\Func\\Value\\Base&#45;&gt;\\Weby\\Sloth\\Func\\Base</title>
<path fill="none" stroke="black" d="M218.575,-300.115C191.02,-321.026 145.576,-355.513 114.981,-378.73"/>
<polygon fill="none" stroke="black" points="112.623,-376.126 106.773,-384.959 116.855,-381.702 112.623,-376.126"/>
</g>
<!-- \\Weby\\Sloth\\Func\\Value\\Median -->
<g id="node9" class="node"><title>\\Weby\\Sloth\\Func\\Value\\Median</title>
<polygon fill="none" stroke="black" points="429.892,-192 372.892,-192 372.892,-156 429.892,-156 429.892,-192"/>
<text text-anchor="middle" x="401.392" y="-171.2" font-family="Courier,monospace" font-size="11.00">Median</text>
</g>
<!-- \\Weby\\Sloth\\Func\\Value\\Median&#45;&gt;\\Weby\\Sloth\\Func\\Value\\Base -->
<g id="edge12" class="edge"><title>\\Weby\\Sloth\\Func\\Value\\Median&#45;&gt;\\Weby\\Sloth\\Func\\Value\\Base</title>
<path fill="none" stroke="black" d="M374.29,-192.077C348.202,-210.144 307.936,-238.03 279.164,-257.956"/>
<polygon fill="none" stroke="black" points="276.861,-255.293 270.633,-263.864 280.846,-261.048 276.861,-255.293"/>
</g>
<!-- \\Weby\\Sloth\\Func\\Value\\Mode -->
<g id="node10" class="node"><title>\\Weby\\Sloth\\Func\\Value\\Mode</title>
<polygon fill="none" stroke="black" points="428.392,-138 374.392,-138 374.392,-102 428.392,-102 428.392,-138"/>
<text text-anchor="middle" x="401.392" y="-117.2" font-family="Courier,monospace" font-size="11.00">Mode</text>
</g>
<!-- \\Weby\\Sloth\\Func\\Value\\Mode&#45;&gt;\\Weby\\Sloth\\Func\\Value\\Base -->
<g id="edge13" class="edge"><title>\\Weby\\Sloth\\Func\\Value\\Mode&#45;&gt;\\Weby\\Sloth\\Func\\Value\\Base</title>
<path fill="none" stroke="black" d="M374.372,-137.555C370.408,-140.562 366.455,-143.764 362.892,-147 325.031,-181.385 287.06,-227.131 264.664,-255.562"/>
<polygon fill="none" stroke="black" points="261.628,-253.762 258.23,-263.798 267.145,-258.071 261.628,-253.762"/>
</g>
<!-- \\Weby\\Sloth\\Func\\Value\\First -->
<g id="node11" class="node"><title>\\Weby\\Sloth\\Func\\Value\\First</title>
<polygon fill="none" stroke="black" points="428.392,-84 374.392,-84 374.392,-48 428.392,-48 428.392,-84"/>
<text text-anchor="middle" x="401.392" y="-63.2" font-family="Courier,monospace" font-size="11.00">First</text>
</g>
<!-- \\Weby\\Sloth\\Func\\Value\\First&#45;&gt;\\Weby\\Sloth\\Func\\Value\\Base -->
<g id="edge14" class="edge"><title>\\Weby\\Sloth\\Func\\Value\\First&#45;&gt;\\Weby\\Sloth\\Func\\Value\\Base</title>
<path fill="none" stroke="black" d="M374.287,-82.7654C370.248,-85.9174 366.294,-89.3719 362.892,-93 315.518,-143.517 276.528,-215.693 257.328,-254.611"/>
<polygon fill="none" stroke="black" points="254.107,-253.231 252.88,-263.755 260.402,-256.293 254.107,-253.231"/>
</g>
<!-- \\Weby\\Sloth\\Operation\\Pivot -->
<g id="node13" class="node"><title>\\Weby\\Sloth\\Operation\\Pivot</title>
<polygon fill="none" stroke="black" points="428.392,-804 374.392,-804 374.392,-768 428.392,-768 428.392,-804"/>
<text text-anchor="middle" x="401.392" y="-783.2" font-family="Courier,monospace" font-size="11.00">Pivot</text>
</g>
<!-- Base -->
<g id="node18" class="node"><title>Base</title>
<ellipse fill="none" stroke="black" cx="243.446" cy="-982" rx="28.6953" ry="18"/>
<text text-anchor="middle" x="243.446" y="-978.3" font-family="Times New Roman,serif" font-size="14.00" fill="gray">Base</text>
</g>
<!-- \\Weby\\Sloth\\Operation\\Pivot&#45;&gt;Base -->
<g id="edge5" class="edge"><title>\\Weby\\Sloth\\Operation\\Pivot&#45;&gt;Base</title>
<path fill="none" stroke="black" d="M374.314,-799.247C370.272,-801.865 366.31,-804.804 362.892,-808 315.356,-852.447 276.638,-919.259 257.473,-955.809"/>
<polygon fill="none" stroke="black" points="254.285,-954.354 252.811,-964.846 260.506,-957.563 254.285,-954.354"/>
</g>
<!-- \\Weby\\Sloth\\Operation\\Group -->
<g id="node14" class="node"><title>\\Weby\\Sloth\\Operation\\Group</title>
<polygon fill="none" stroke="black" points="428.392,-750 374.392,-750 374.392,-714 428.392,-714 428.392,-750"/>
<text text-anchor="middle" x="401.392" y="-729.2" font-family="Courier,monospace" font-size="11.00">Group</text>
</g>
<!-- \\Weby\\Sloth\\Operation\\Group&#45;&gt;Base -->
<g id="edge8" class="edge"><title>\\Weby\\Sloth\\Operation\\Group&#45;&gt;Base</title>
<path fill="none" stroke="black" d="M374.059,-748.56C370.048,-751.736 366.162,-755.252 362.892,-759 309.276,-820.438 271.041,-910.327 254.142,-954.886"/>
<polygon fill="none" stroke="black" points="250.795,-953.846 250.584,-964.439 257.355,-956.289 250.795,-953.846"/>
</g>
<!-- \\Weby\\Sloth\\Sloth -->
<g id="node15" class="node"><title>\\Weby\\Sloth\\Sloth</title>
<polygon fill="none" stroke="black" points="428.392,-696 374.392,-696 374.392,-660 428.392,-660 428.392,-696"/>
<text text-anchor="middle" x="401.392" y="-675.2" font-family="Courier,monospace" font-size="11.00">Sloth</text>
</g>
<!-- \\Weby\\Sloth\\Utils -->
<g id="node16" class="node"><title>\\Weby\\Sloth\\Utils</title>
<polygon fill="none" stroke="black" points="428.392,-642 374.392,-642 374.392,-606 428.392,-606 428.392,-642"/>
<text text-anchor="middle" x="401.392" y="-621.2" font-family="Courier,monospace" font-size="11.00">Utils</text>
</g>
<!-- \\Weby\\Sloth\\Exception -->
<g id="node17" class="node"><title>\\Weby\\Sloth\\Exception</title>
<polygon fill="none" stroke="black" points="439.892,-876 362.892,-876 362.892,-840 439.892,-840 439.892,-876"/>
<text text-anchor="middle" x="401.392" y="-855.2" font-family="Courier,monospace" font-size="11.00">Exception</text>
</g>
<!-- Exception -->
<g id="node19" class="node"><title>Exception</title>
<ellipse fill="none" stroke="black" cx="243.446" cy="-1110" rx="47.3916" ry="18"/>
<text text-anchor="middle" x="243.446" y="-1106.3" font-family="Times New Roman,serif" font-size="14.00" fill="gray">Exception</text>
</g>
<!-- \\Weby\\Sloth\\Exception&#45;&gt;Exception -->
<g id="edge10" class="edge"><title>\\Weby\\Sloth\\Exception&#45;&gt;Exception</title>
<path fill="none" stroke="black" d="M389.837,-876.196C371.286,-908.038 331.443,-975.826 296.043,-1032 284.972,-1049.57 272.084,-1069.05 261.959,-1084.15"/>
<polygon fill="none" stroke="black" points="259.028,-1082.24 256.35,-1092.49 264.836,-1086.14 259.028,-1082.24"/>
</g>
</g>
</svg>
