<?xml version="1.0" encoding="UTF-8" standalone="no"?>
<!DOCTYPE svg PUBLIC "-//W3C//DTD SVG 1.1//EN"
 "http://www.w3.org/Graphics/SVG/1.1/DTD/svg11.dtd">
<!-- Generated by graphviz version 2.38.0 (20140413.2041)
 -->
<!-- Title: G Pages: 1 -->
<svg width="486pt" height="1170pt"
 viewBox="0.00 0.00 485.89 1170.00" xmlns="http://www.w3.org/2000/svg" xmlns:xlink="http://www.w3.org/1999/xlink">
<g id="graph0" class="graph" transform="scale(1 1) rotate(0) translate(4 1166)">
<title>G</title>
<polygon fill="white" stroke="none" points="-4,4 -4,-1166 481.892,-1166 481.892,4 -4,4"/>
<g id="clust1" class="cluster"><title>cluster_Global</title>
<path fill="none" stroke="gray" d="M20,-8C20,-8 457.892,-8 457.892,-8 463.892,-8 469.892,-14 469.892,-20 469.892,-20 469.892,-1142 469.892,-1142 469.892,-1148 463.892,-1154 457.892,-1154 457.892,-1154 20,-1154 20,-1154 14,-1154 8,-1148 8,-1142 8,-1142 8,-20 8,-20 8,-14 14,-8 20,-8"/>
<text text-anchor="middle" x="238.946" y="-1141.2" font-family="Times New Roman,serif" font-size="11.00" fill="gray">Global</text>
</g>
<g id="clust8" class="cluster"><title>cluster_Global\Weby</title>
<path fill="none" stroke="gray" d="M202.848,-938C202.848,-938 284.043,-938 284.043,-938 290.043,-938 296.043,-944 296.043,-950 296.043,-950 296.043,-1070 296.043,-1070 296.043,-1076 290.043,-1082 284.043,-1082 284.043,-1082 202.848,-1082 202.848,-1082 196.848,-1082 190.848,-1076 190.848,-1070 190.848,-1070 190.848,-950 190.848,-950 190.848,-944 196.848,-938 202.848,-938"/>
<text text-anchor="middle" x="243.446" y="-1069.2" font-family="Times New Roman,serif" font-size="11.00" fill="gray">Weby</text>
</g>
<g id="clust9" class="cluster"><title>cluster_Global\Weby\Sloth</title>
<path fill="none" stroke="gray" d="M210.848,-946C210.848,-946 276.043,-946 276.043,-946 282.043,-946 288.043,-952 288.043,-958 288.043,-958 288.043,-1042 288.043,-1042 288.043,-1048 282.043,-1054 276.043,-1054 276.043,-1054 210.848,-1054 210.848,-1054 204.848,-1054 198.848,-1048 198.848,-1042 198.848,-1042 198.848,-958 198.848,-958 198.848,-952 204.848,-946 210.848,-946"/>
<text text-anchor="middle" x="243.446" y="-1041.2" font-family="Times New Roman,serif" font-size="11.00" fill="gray">Sloth</text>
</g>
<g id="clust10" class="cluster"><title>cluster_Global\Weby\Sloth\Operation</title>
<path fill="none" stroke="gray" d="M218.848,-954C218.848,-954 268.043,-954 268.043,-954 274.043,-954 280.043,-960 280.043,-966 280.043,-966 280.043,-1014 280.043,-1014 280.043,-1020 274.043,-1026 268.043,-1026 268.043,-1026 218.848,-1026 218.848,-1026 212.848,-1026 206.848,-1020 206.848,-1014 206.848,-1014 206.848,-966 206.848,-966 206.848,-960 212.848,-954 218.848,-954"/>
<text text-anchor="middle" x="243.446" y="-1013.2" font-family="Times New Roman,serif" font-size="11.00" fill="gray">Operation</text>
</g>
<g id="clust2" class="cluster"><title>cluster_\Weby</title>
<path fill="none" stroke="gray" d="M28,-16C28,-16 449.892,-16 449.892,-16 455.892,-16 461.892,-22 461.892,-28 461.892,-28 461.892,-918 461.892,-918 461.892,-924 455.892,-930 449.892,-930 449.892,-930 28,-930 28,-930 22,-930 16,-924 16,-918 16,-918 16,-28 16,-28 16,-22 22,-16 28,-16"/>
<text text-anchor="middle" x="238.946" y="-917.2" font-family="Times New Roman,serif" font-size="11.00" fill="gray">Weby</text>
</g>
<g id="clust3" class="cluster"><title>cluster_\Weby\Sloth</title>
<path fill="none" stroke="gray" d="M36,-24C36,-24 441.892,-24 441.892,-24 447.892,-24 453.892,-30 453.892,-36 453.892,-36 453.892,-890 453.892,-890 453.892,-896 447.892,-902 441.892,-902 441.892,-902 36,-902 36,-902 30,-902 24,-896 24,-890 24,-890 24,-36 24,-36 24,-30 30,-24 36,-24"/>
<text text-anchor="middle" x="238.946" y="-889.2" font-family="Times New Roman,serif" font-size="11.00" fill="gray">Sloth</text>
</g>
<g id="clust4" class="cluster"><title>cluster_\Weby\Sloth\Func</title>
<path fill="none" stroke="gray" d="M44,-130C44,-130 433.892,-130 433.892,-130 439.892,-130 445.892,-136 445.892,-142 445.892,-142 445.892,-684 445.892,-684 445.892,-690 439.892,-696 433.892,-696 433.892,-696 44,-696 44,-696 38,-696 32,-690 32,-684 32,-684 32,-142 32,-142 32,-136 38,-130 44,-130"/>
<text text-anchor="middle" x="238.946" y="-683.2" font-family="Times New Roman,serif" font-size="11.00" fill="gray">Func</text>
</g>
<g id="clust5" class="cluster"><title>cluster_\Weby\Sloth\Func\Group</title>
<path fill="none" stroke="gray" d="M205.446,-596C205.446,-596 424.392,-596 424.392,-596 430.392,-596 436.392,-602 436.392,-608 436.392,-608 436.392,-656 436.392,-656 436.392,-662 430.392,-668 424.392,-668 424.392,-668 205.446,-668 205.446,-668 199.446,-668 193.446,-662 193.446,-656 193.446,-656 193.446,-608 193.446,-608 193.446,-602 199.446,-596 205.446,-596"/>
<text text-anchor="middle" x="314.919" y="-655.2" font-family="Times New Roman,serif" font-size="11.00" fill="gray">Group</text>
</g>
<g id="clust6" class="cluster"><title>cluster_\Weby\Sloth\Func\Value</title>
<path fill="none" stroke="gray" d="M205.446,-138C205.446,-138 425.892,-138 425.892,-138 431.892,-138 437.892,-144 437.892,-150 437.892,-150 437.892,-576 437.892,-576 437.892,-582 431.892,-588 425.892,-588 425.892,-588 205.446,-588 205.446,-588 199.446,-588 193.446,-582 193.446,-576 193.446,-576 193.446,-150 193.446,-150 193.446,-144 199.446,-138 205.446,-138"/>
<text text-anchor="middle" x="315.669" y="-575.2" font-family="Times New Roman,serif" font-size="11.00" fill="gray">Value</text>
</g>
<g id="clust7" class="cluster"><title>cluster_\Weby\Sloth\Operation</title>
<path fill="none" stroke="gray" d="M378.392,-704C378.392,-704 424.392,-704 424.392,-704 430.392,-704 436.392,-710 436.392,-716 436.392,-716 436.392,-818 436.392,-818 436.392,-824 430.392,-830 424.392,-830 424.392,-830 378.392,-830 378.392,-830 372.392,-830 366.392,-824 366.392,-818 366.392,-818 366.392,-716 366.392,-716 366.392,-710 372.392,-704 378.392,-704"/>
<text text-anchor="middle" x="401.392" y="-817.2" font-family="Times New Roman,serif" font-size="11.00" fill="gray">Operation</text>
</g>
<!-- \\Weby\\Sloth\\Func\\Group\\Base -->
<g id="node1" class="node"><title>\\Weby\\Sloth\\Func\\Group\\Base</title>
<polygon fill="none" stroke="black" points="285.446,-640 201.446,-640 201.446,-604 285.446,-604 285.446,-640"/>
<text text-anchor="start" x="209.446" y="-625.2" font-family="Courier,monospace" font-size="11.00">«abstract»</text>
<text text-anchor="start" x="229.446" y="-613.2" font-family="Courier,monospace" font-size="11.00">Base</text>
</g>
<!-- \\Weby\\Sloth\\Func\\Base -->
<g id="node12" class="node"><title>\\Weby\\Sloth\\Func\\Base</title>
<polygon fill="none" stroke="black" points="124,-519 40,-519 40,-483 124,-483 124,-519"/>
<text text-anchor="start" x="48" y="-504.2" font-family="Courier,monospace" font-size="11.00">«abstract»</text>
<text text-anchor="start" x="68" y="-492.2" font-family="Courier,monospace" font-size="11.00">Base</text>
</g>
<!-- \\Weby\\Sloth\\Func\\Group\\Base&#45;&gt;\\Weby\\Sloth\\Func\\Base -->
<g id="edge2" class="edge"><title>\\Weby\\Sloth\\Func\\Group\\Base&#45;&gt;\\Weby\\Sloth\\Func\\Base</title>
<path fill="none" stroke="black" d="M209.429,-603.955C203.136,-600.195 196.693,-596.118 190.848,-592 161.902,-571.606 131.263,-545.234 110.07,-526.134"/>
<polygon fill="none" stroke="black" points="112.189,-523.33 102.434,-519.197 107.483,-528.512 112.189,-523.33"/>
</g>
<!-- \\Weby\\Sloth\\Func\\Group\\Count -->
<g id="node2" class="node"><title>\\Weby\\Sloth\\Func\\Group\\Count</title>
<polygon fill="none" stroke="black" points="428.392,-640 374.392,-640 374.392,-604 428.392,-604 428.392,-640"/>
<text text-anchor="middle" x="401.392" y="-619.2" font-family="Courier,monospace" font-size="11.00">Count</text>
</g>
<!-- \\Weby\\Sloth\\Func\\Group\\Count&#45;&gt;\\Weby\\Sloth\\Func\\Group\\Base -->
<g id="edge3" class="edge"><title>\\Weby\\Sloth\\Func\\Group\\Count&#45;&gt;\\Weby\\Sloth\\Func\\Group\\Base</title>
<path fill="none" stroke="black" d="M374.29,-622C352.933,-622 322.076,-622 295.801,-622"/>
<polygon fill="none" stroke="black" points="295.612,-618.5 285.612,-622 295.612,-625.5 295.612,-618.5"/>
</g>
<!-- \\Weby\\Sloth\\Func\\Value\\Accum -->
<g id="node3" class="node"><title>\\Weby\\Sloth\\Func\\Value\\Accum</title>
<polygon fill="none" stroke="black" points="428.392,-560 374.392,-560 374.392,-524 428.392,-524 428.392,-560"/>
<text text-anchor="middle" x="401.392" y="-539.2" font-family="Courier,monospace" font-size="11.00">Accum</text>
</g>
<!-- \\Weby\\Sloth\\Func\\Value\\Base -->
<g id="node5" class="node"><title>\\Weby\\Sloth\\Func\\Value\\Base</title>
<polygon fill="none" stroke="black" points="285.446,-398 201.446,-398 201.446,-362 285.446,-362 285.446,-398"/>
<text text-anchor="start" x="209.446" y="-383.2" font-family="Courier,monospace" font-size="11.00">«abstract»</text>
<text text-anchor="start" x="229.446" y="-371.2" font-family="Courier,monospace" font-size="11.00">Base</text>
</g>
<!-- \\Weby\\Sloth\\Func\\Value\\Accum&#45;&gt;\\Weby\\Sloth\\Func\\Value\\Base -->
<g id="edge4" class="edge"><title>\\Weby\\Sloth\\Func\\Value\\Accum&#45;&gt;\\Weby\\Sloth\\Func\\Value\\Base</title>
<path fill="none" stroke="black" d="M374.372,-524.445C370.408,-521.438 366.455,-518.236 362.892,-515 325.031,-480.615 287.06,-434.869 264.664,-406.438"/>
<polygon fill="none" stroke="black" points="267.145,-403.929 258.23,-398.202 261.628,-408.238 267.145,-403.929"/>
</g>
<!-- \\Weby\\Sloth\\Func\\Value\\Avg -->
<g id="node4" class="node"><title>\\Weby\\Sloth\\Func\\Value\\Avg</title>
<polygon fill="none" stroke="black" points="428.392,-506 374.392,-506 374.392,-470 428.392,-470 428.392,-506"/>
<text text-anchor="middle" x="401.392" y="-485.2" font-family="Courier,monospace" font-size="11.00">Avg</text>
</g>
<!-- \\Weby\\Sloth\\Func\\Value\\Avg&#45;&gt;\\Weby\\Sloth\\Func\\Value\\Base -->
<g id="edge5" class="edge"><title>\\Weby\\Sloth\\Func\\Value\\Avg&#45;&gt;\\Weby\\Sloth\\Func\\Value\\Base</title>
<path fill="none" stroke="black" d="M374.29,-469.923C348.202,-451.856 307.936,-423.97 279.164,-404.044"/>
<polygon fill="none" stroke="black" points="280.846,-400.952 270.633,-398.136 276.861,-406.707 280.846,-400.952"/>
</g>
<!-- \\Weby\\Sloth\\Func\\Value\\Base&#45;&gt;\\Weby\\Sloth\\Func\\Base -->
<g id="edge6" class="edge"><title>\\Weby\\Sloth\\Func\\Value\\Base&#45;&gt;\\Weby\\Sloth\\Func\\Base</title>
<path fill="none" stroke="black" d="M218.575,-398.115C191.02,-419.026 145.576,-453.513 114.981,-476.73"/>
<polygon fill="none" stroke="black" points="112.623,-474.126 106.773,-482.959 116.855,-479.702 112.623,-474.126"/>
</g>
<!-- \\Weby\\Sloth\\Func\\Value\\First -->
<g id="node6" class="node"><title>\\Weby\\Sloth\\Func\\Value\\First</title>
<polygon fill="none" stroke="black" points="428.392,-452 374.392,-452 374.392,-416 428.392,-416 428.392,-452"/>
<text text-anchor="middle" x="401.392" y="-431.2" font-family="Courier,monospace" font-size="11.00">First</text>
</g>
<!-- \\Weby\\Sloth\\Func\\Value\\First&#45;&gt;\\Weby\\Sloth\\Func\\Value\\Base -->
<g id="edge7" class="edge"><title>\\Weby\\Sloth\\Func\\Value\\First&#45;&gt;\\Weby\\Sloth\\Func\\Value\\Base</title>
<path fill="none" stroke="black" d="M374.29,-424.962C352.744,-417.501 321.529,-406.692 295.104,-397.542"/>
<polygon fill="none" stroke="black" points="296.207,-394.22 285.612,-394.255 293.917,-400.834 296.207,-394.22"/>
</g>
<!-- \\Weby\\Sloth\\Func\\Value\\Max -->
<g id="node7" class="node"><title>\\Weby\\Sloth\\Func\\Value\\Max</title>
<polygon fill="none" stroke="black" points="428.392,-398 374.392,-398 374.392,-362 428.392,-362 428.392,-398"/>
<text text-anchor="middle" x="401.392" y="-377.2" font-family="Courier,monospace" font-size="11.00">Max</text>
</g>
<!-- \\Weby\\Sloth\\Func\\Value\\Max&#45;&gt;\\Weby\\Sloth\\Func\\Value\\Base -->
<g id="edge8" class="edge"><title>\\Weby\\Sloth\\Func\\Value\\Max&#45;&gt;\\Weby\\Sloth\\Func\\Value\\Base</title>
<path fill="none" stroke="black" d="M374.29,-380C352.933,-380 322.076,-380 295.801,-380"/>
<polygon fill="none" stroke="black" points="295.612,-376.5 285.612,-380 295.612,-383.5 295.612,-376.5"/>
</g>
<!-- \\Weby\\Sloth\\Func\\Value\\Median -->
<g id="node8" class="node"><title>\\Weby\\Sloth\\Func\\Value\\Median</title>
<polygon fill="none" stroke="black" points="429.892,-344 372.892,-344 372.892,-308 429.892,-308 429.892,-344"/>
<text text-anchor="middle" x="401.392" y="-323.2" font-family="Courier,monospace" font-size="11.00">Median</text>
</g>
<!-- \\Weby\\Sloth\\Func\\Value\\Median&#45;&gt;\\Weby\\Sloth\\Func\\Value\\Base -->
<g id="edge9" class="edge"><title>\\Weby\\Sloth\\Func\\Value\\Median&#45;&gt;\\Weby\\Sloth\\Func\\Value\\Base</title>
<path fill="none" stroke="black" d="M372.871,-335.53C351.394,-342.967 320.967,-353.503 295.121,-362.453"/>
<polygon fill="none" stroke="black" points="293.772,-359.216 285.467,-365.795 296.062,-365.83 293.772,-359.216"/>
</g>
<!-- \\Weby\\Sloth\\Func\\Value\\Min -->
<g id="node9" class="node"><title>\\Weby\\Sloth\\Func\\Value\\Min</title>
<polygon fill="none" stroke="black" points="428.392,-290 374.392,-290 374.392,-254 428.392,-254 428.392,-290"/>
<text text-anchor="middle" x="401.392" y="-269.2" font-family="Courier,monospace" font-size="11.00">Min</text>
</g>
<!-- \\Weby\\Sloth\\Func\\Value\\Min&#45;&gt;\\Weby\\Sloth\\Func\\Value\\Base -->
<g id="edge10" class="edge"><title>\\Weby\\Sloth\\Func\\Value\\Min&#45;&gt;\\Weby\\Sloth\\Func\\Value\\Base</title>
<path fill="none" stroke="black" d="M374.29,-290.077C348.202,-308.144 307.936,-336.03 279.164,-355.956"/>
<polygon fill="none" stroke="black" points="276.861,-353.293 270.633,-361.864 280.846,-359.048 276.861,-353.293"/>
</g>
<!-- \\Weby\\Sloth\\Func\\Value\\Mode -->
<g id="node10" class="node"><title>\\Weby\\Sloth\\Func\\Value\\Mode</title>
<polygon fill="none" stroke="black" points="428.392,-236 374.392,-236 374.392,-200 428.392,-200 428.392,-236"/>
<text text-anchor="middle" x="401.392" y="-215.2" font-family="Courier,monospace" font-size="11.00">Mode</text>
</g>
<!-- \\Weby\\Sloth\\Func\\Value\\Mode&#45;&gt;\\Weby\\Sloth\\Func\\Value\\Base -->
<g id="edge11" class="edge"><title>\\Weby\\Sloth\\Func\\Value\\Mode&#45;&gt;\\Weby\\Sloth\\Func\\Value\\Base</title>
<path fill="none" stroke="black" d="M374.372,-235.555C370.408,-238.562 366.455,-241.764 362.892,-245 325.031,-279.385 287.06,-325.131 264.664,-353.562"/>
<polygon fill="none" stroke="black" points="261.628,-351.762 258.23,-361.798 267.145,-356.071 261.628,-351.762"/>
</g>
<!-- \\Weby\\Sloth\\Func\\Value\\Sum -->
<g id="node11" class="node"><title>\\Weby\\Sloth\\Func\\Value\\Sum</title>
<polygon fill="none" stroke="black" points="428.392,-182 374.392,-182 374.392,-146 428.392,-146 428.392,-182"/>
<text text-anchor="middle" x="401.392" y="-161.2" font-family="Courier,monospace" font-size="11.00">Sum</text>
</g>
<!-- \\Weby\\Sloth\\Func\\Value\\Sum&#45;&gt;\\Weby\\Sloth\\Func\\Value\\Base -->
<g id="edge12" class="edge"><title>\\Weby\\Sloth\\Func\\Value\\Sum&#45;&gt;\\Weby\\Sloth\\Func\\Value\\Base</title>
<path fill="none" stroke="black" d="M374.287,-180.765C370.248,-183.917 366.294,-187.372 362.892,-191 315.518,-241.517 276.528,-313.693 257.328,-352.611"/>
<polygon fill="none" stroke="black" points="254.107,-351.231 252.88,-361.755 260.402,-354.293 254.107,-351.231"/>
</g>
<!-- \\Weby\\Sloth\\Operation\\Group -->
<g id="node13" class="node"><title>\\Weby\\Sloth\\Operation\\Group</title>
<polygon fill="none" stroke="black" points="428.392,-802 374.392,-802 374.392,-766 428.392,-766 428.392,-802"/>
<text text-anchor="middle" x="401.392" y="-781.2" font-family="Courier,monospace" font-size="11.00">Group</text>
</g>
<!-- Base -->
<g id="node18" class="node"><title>Base</title>
<ellipse fill="none" stroke="black" cx="243.446" cy="-980" rx="28.6953" ry="18"/>
<text text-anchor="middle" x="243.446" y="-976.3" font-family="Times New Roman,serif" font-size="14.00" fill="gray">Base</text>
</g>
<!-- \\Weby\\Sloth\\Operation\\Group&#45;&gt;Base -->
<g id="edge13" class="edge"><title>\\Weby\\Sloth\\Operation\\Group&#45;&gt;Base</title>
<path fill="none" stroke="black" d="M374.314,-797.247C370.272,-799.865 366.31,-802.804 362.892,-806 315.356,-850.447 276.638,-917.259 257.473,-953.809"/>
<polygon fill="none" stroke="black" points="254.285,-952.354 252.811,-962.846 260.506,-955.563 254.285,-952.354"/>
</g>
<!-- \\Weby\\Sloth\\Operation\\Pivot -->
<g id="node14" class="node"><title>\\Weby\\Sloth\\Operation\\Pivot</title>
<polygon fill="none" stroke="black" points="428.392,-748 374.392,-748 374.392,-712 428.392,-712 428.392,-748"/>
<text text-anchor="middle" x="401.392" y="-727.2" font-family="Courier,monospace" font-size="11.00">Pivot</text>
</g>
<!-- \\Weby\\Sloth\\Operation\\Pivot&#45;&gt;Base -->
<g id="edge14" class="edge"><title>\\Weby\\Sloth\\Operation\\Pivot&#45;&gt;Base</title>
<path fill="none" stroke="black" d="M374.059,-746.56C370.048,-749.736 366.162,-753.252 362.892,-757 309.276,-818.438 271.041,-908.327 254.142,-952.886"/>
<polygon fill="none" stroke="black" points="250.795,-951.846 250.584,-962.439 257.355,-954.289 250.795,-951.846"/>
</g>
<!-- \\Weby\\Sloth\\Exception -->
<g id="node15" class="node"><title>\\Weby\\Sloth\\Exception</title>
<polygon fill="none" stroke="black" points="439.892,-874 362.892,-874 362.892,-838 439.892,-838 439.892,-874"/>
<text text-anchor="middle" x="401.392" y="-853.2" font-family="Courier,monospace" font-size="11.00">Exception</text>
</g>
<!-- Exception -->
<g id="node19" class="node"><title>Exception</title>
<ellipse fill="none" stroke="black" cx="243.446" cy="-1108" rx="47.3916" ry="18"/>
<text text-anchor="middle" x="243.446" y="-1104.3" font-family="Times New Roman,serif" font-size="14.00" fill="gray">Exception</text>
</g>
<!-- \\Weby\\Sloth\\Exception&#45;&gt;Exception -->
<g id="edge1" class="edge"><title>\\Weby\\Sloth\\Exception&#45;&gt;Exception</title>
<path fill="none" stroke="black" d="M389.837,-874.196C371.286,-906.038 331.443,-973.826 296.043,-1030 284.972,-1047.57 272.084,-1067.05 261.959,-1082.15"/>
<polygon fill="none" stroke="black" points="259.028,-1080.24 256.35,-1090.49 264.836,-1084.14 259.028,-1080.24"/>
</g>
<!-- \\Weby\\Sloth\\Sloth -->
<g id="node16" class="node"><title>\\Weby\\Sloth\\Sloth</title>
<polygon fill="none" stroke="black" points="428.392,-122 374.392,-122 374.392,-86 428.392,-86 428.392,-122"/>
<text text-anchor="middle" x="401.392" y="-101.2" font-family="Courier,monospace" font-size="11.00">Sloth</text>
</g>
<!-- \\Weby\\Sloth\\Utils -->
<g id="node17" class="node"><title>\\Weby\\Sloth\\Utils</title>
<polygon fill="none" stroke="black" points="428.392,-68 374.392,-68 374.392,-32 428.392,-32 428.392,-68"/>
<text text-anchor="middle" x="401.392" y="-47.2" font-family="Courier,monospace" font-size="11.00">Utils</text>
</g>
</g>
</svg>
